<?xml version="1.0" encoding="utf-8"?>
<!-- Generator: Adobe Illustrator 15.0.0, SVG Export Plug-In . SVG Version: 6.00 Build 0)  -->
<!DOCTYPE svg PUBLIC "-//W3C//DTD SVG 1.1//EN" "http://www.w3.org/Graphics/SVG/1.1/DTD/svg11.dtd">
<svg version="1.1" id="图层_1" xmlns="http://www.w3.org/2000/svg" xmlns:xlink="http://www.w3.org/1999/xlink" x="0px" y="0px"
	 width="550px" height="366px" viewBox="0.165 -30.167 550 366" enable-background="new 0.165 -30.167 550 366"
	 xml:space="preserve">
<path fill="#57C8F2" d="M0.33-28h550v363.833h-550V-28L0.33-28z"/>
<g>
	<g>
		<path fill="#48B6DF" d="M182.308,264.981c0.869,0,1.997-1.319,0.69-1.319C182.13,263.662,181.002,264.981,182.308,264.981
			L182.308,264.981z"/>
	</g>
</g>
<g>
	<defs>
		<path id="SVGID_1_" d="M-71.816,239.385c0,0,139.394-76.377,315.699-23.067c161.396,48.803,253.469,13.281,324.805-12.582
			c70.926-25.714,15.938,186.633,15.938,186.633l-679.967-4.894L-71.816,239.385z"/>
	</defs>
	<clipPath id="SVGID_2_">
		<use xlink:href="#SVGID_1_"  overflow="visible"/>
	</clipPath>
	<path opacity="0.5" clip-path="url(#SVGID_2_)" fill="#4CB9E1" d="M1.33-25.167h550v363.834h-550V-25.167L1.33-25.167z"/>
</g>
<g>
	<defs>
		<path id="SVGID_3_" d="M-97.375,108.812c0,0,66.359,63.127,190.779,41.284c130.881-22.978,185.53-128.193,336.547,7.849
			c111.891,100.797,220.314-26.154,210.971-72.119c-9.346-45.966,79.874,30.546,81.066,45.907
			c1.191,15.36,28.917,209.209-76.221,225.331c-105.139,16.123-802.6,15.604-803.591,8.632S-97.375,108.812-97.375,108.812z"/>
	</defs>
	<clipPath id="SVGID_4_">
		<use xlink:href="#SVGID_3_"  overflow="visible"/>
	</clipPath>
	<path opacity="0.5" clip-path="url(#SVGID_4_)" fill="#48B6DF" d="M2.33-28h550v363.833h-550V-28L2.33-28z"/>
</g>
</svg>
